<svg width="100" height="130" viewBox="0 0 100 130" fill="none" xmlns="http://www.w3.org/2000/svg">
<path d="M46.7452 0H68.5352C68.8365 1.26583 75.9191 24.8342 89.7826 70.7048H93.6705V113.29H84.7193V116.636H93.6705V125.768H69.6195V99.5476H40.144V110.669H28.2088V129.476H6.32804V128.21H8.04596V110.67H16.9971V74.4132H24.4112L46.7452 0ZM56.962 36.4324V36.7038C55.0933 46.9502 51.4767 63.1656 46.1119 85.3473H66.365V70.7003H64.647C59.8249 49.7241 57.4138 38.3018 57.4138 36.4325L56.962 36.4324ZM18.3547 67.8986H20.3438C20.3438 68.4411 20.6151 68.8931 21.1576 69.2548C21.2179 68.7123 21.5192 68.2602 22.0617 67.8986H23.5988V68.0794C22.5742 69.526 22.0617 70.3398 22.0617 70.5206C22.3029 71.0631 22.8755 71.9372 23.7797 73.1426V73.5947H22.9659C22.1221 73.5947 21.5193 72.9919 21.1576 71.7864C20.2535 72.992 19.7411 73.5947 19.6205 73.5947H18.5355C18.2341 73.5947 18.0834 73.444 18.0834 73.1426C18.2643 73.1426 18.8671 72.3289 19.8917 70.7014V70.3397C18.8671 68.8328 18.3547 68.0191 18.3547 67.8986ZM0 70.5206H16.9978L16.9971 74.4132L0 74.4084V70.5206ZM94.3036 73.3231L98.9148 73.3231V74.4081L96.112 77.9343H98.734C98.9751 77.9946 99.0957 78.1453 99.0957 78.3864V78.8385C99.0957 79.1399 98.9751 79.2906 98.734 79.2906H94.1228V78.2056L96.9256 74.6794H94.3036V73.3231ZM60.9404 79.0199L62.2061 79.0199V81.1899L64.6473 79.0199H65.9131V79.2911L64.0144 81.4611C65.4611 83.5106 66.1844 84.6559 66.1844 84.897H64.8282C64.7077 84.897 64.0447 84.1133 62.8392 82.5461C62.6584 82.5461 62.4475 82.7571 62.2063 83.179V84.897H60.9405L60.9404 79.0199ZM94.7554 81.0087H97.3772C98.7033 81.1895 99.3664 81.8525 99.3664 82.9978L98.7334 84.0828C99.1554 84.565 99.3664 85.439 99.3664 86.7048V86.8856H98.0102C97.8896 85.439 97.6787 84.7156 97.3773 84.7156H95.8402V86.8856H94.7552C94.4539 86.8856 94.3031 86.7349 94.3031 86.4336V81.4607C94.3634 81.1593 94.5143 81.0087 94.7554 81.0087ZM95.8405 82.2743V83.6305H97.3776C97.679 83.6305 97.8297 83.4798 97.8297 83.1784V82.2743L95.8405 82.2743ZM94.3036 88.6035L98.4626 88.6034C98.764 88.6637 98.9147 88.8144 98.9147 89.0556V89.5076C98.9147 89.809 98.764 89.9597 98.4626 89.9597H97.1968V94.5709H95.6597V89.9597H94.3035C94.0021 89.9597 93.8514 89.809 93.8514 89.5076V89.0556C93.9117 88.7542 94.0625 88.6035 94.3036 88.6035ZM93.8518 96.289H94.9368C95.3588 96.289 95.8108 97.5247 96.293 99.996H96.4738C97.1971 97.826 97.5588 96.5904 97.5588 96.289H99.0959C97.9506 100.207 97.2273 102.166 96.9259 102.166H95.6601L93.8518 96.289ZM46.7452 101.262V102.437C46.7452 102.678 45.5698 103.16 43.2189 103.884V104.155L46.7452 105.421V106.777L41.2298 104.788V103.251L46.7452 101.262ZM12.8387 103.884H13.5619C14.0441 103.884 14.8277 105.873 15.9127 109.851H14.6469C14.6469 109.731 14.4962 109.279 14.1948 108.495H12.2057C12.0852 109.399 11.8742 109.851 11.5729 109.851H10.4879C11.7537 105.873 12.5373 103.884 12.8387 103.884ZM96.7451 103.884H97.378C98.8246 103.884 99.6986 104.908 100 106.958C99.578 109.007 98.6438 110.032 97.1972 110.032C95.1477 109.67 94.123 108.646 94.123 106.958C94.4244 104.908 95.2984 103.884 96.7451 103.884ZM95.66 106.777V106.958C95.66 107.742 96.0216 108.344 96.745 108.766H97.3779C98.1012 108.344 98.4629 107.742 98.4629 106.958V106.777C98.3424 105.632 97.83 105.059 96.9258 105.059C96.0819 105.361 95.66 105.933 95.66 106.777ZM13.1098 105.873C12.8085 106.838 12.6578 107.35 12.6578 107.411H13.7428L13.2907 105.873H13.1098ZM69.6203 127.302H98.7338V129.472H69.6203V127.302Z" fill="#111111"/>
</svg>
